<!-- theodore-quality-reimport-v2 -->
<svg width="32" height="22" viewBox="0 0 96 64" fill="none" xmlns="http://www.w3.org/2000/svg">
  <defs>
    <linearGradient id="body" x1="10" y1="8" x2="86" y2="58" gradientUnits="userSpaceOnUse">
      <stop stop-color="#70D9FF"/>
      <stop offset="1" stop-color="#397DFF"/>
    </linearGradient>
  </defs>
  <path d="M26 13H70C80 13 87 20 90 31L94 49C96 58 86 64 79 58L68 48H28L17 58C10 64 0 58 2 49L6 31C9 20 16 13 26 13Z" fill="#071820" stroke="url(#body)" stroke-width="4"/>
  <path d="M25 25V40M17.5 32.5H32.5" stroke="#B9F3FF" stroke-width="5" stroke-linecap="round"/>
  <circle cx="68" cy="27" r="4" fill="#FF6685"/>
  <circle cx="78" cy="36" r="4" fill="#74D7FF"/>
  <circle cx="58" cy="36" r="4" fill="#7CFFB0"/>
  <circle cx="68" cy="45" r="4" fill="#FFD66E"/>
  <path d="M40 33H56" stroke="#70D9FF" stroke-width="3" stroke-linecap="round" opacity="0.75"/>
  <circle cx="44" cy="42" r="5" fill="#102E3A" stroke="#70D9FF" stroke-width="2"/>
  <circle cx="54" cy="42" r="5" fill="#102E3A" stroke="#70D9FF" stroke-width="2"/>
</svg>
